<?xml version="1.0" encoding="utf-8"?>
<svg viewBox="0.5192 210.8037 529.2999 160.1" xmlns="http://www.w3.org/2000/svg">
  <g class="gold" transform="matrix(1, 0, 0, 1, -9.180815696716305, 61.803760528564446)">
    <path d="M38.5,184.3c-3.6-3.2-4.4-7.4-4.4-10.8c0-2.5,0.8-6.7,4.1-10c2.2-2.2,5.5-3.9,11.2-3.9c1.5,0,3.5,0.1,5.3,0.4&#9;&#9;c1.4,0.3,2.6,0.5,3.7,0.5c0.4,0,0.5,0.2,0.5,0.4c0,0.3-0.1,0.7-0.2,2.1c-0.1,1.2-0.1,3.2-0.1,3.8c0,0.6-0.1,0.8-0.3,0.8&#9;&#9;c-0.3,0-0.3-0.3-0.3-0.8c0-1.4-0.6-2.9-1.5-3.7c-1.3-1.1-4.1-2.1-7.3-2.1c-4.9,0-7.1,1.4-8.4,2.7c-2.7,2.6-3.3,5.8-3.3,9.6&#9;&#9;c0,7,5.4,13.4,13.2,13.4c2.7,0,4.9-0.3,6.4-1.8c0.8-0.8,1.2-2.4,1.4-3.1c0.1-0.4,0.1-0.5,0.4-0.5c0.2,0,0.3,0.3,0.3,0.5&#9;&#9;c0,0.3-0.4,3.4-0.8,4.7c-0.2,0.7-0.3,0.8-1,1.1c-1.5,0.6-4.3,0.8-6.6,0.8C45.1,188.3,41.3,186.9,38.5,184.3z" style="fill: rgb(149, 108, 0);"/>
    <path d="M66.9,173.2c0-4.8,0-5.7-0.1-6.7c-0.1-1.1-0.3-1.6-1.3-1.7c-0.3,0-0.8-0.1-1.1-0.1c-0.1,0-0.3-0.1-0.3-0.3&#9;&#9;c0-0.2,0.1-0.3,0.5-0.3c1.5,0,3.6,0.1,3.7,0.1c0.2,0,7,0,7.7,0c0.6,0,1.2-0.1,1.5-0.2c0.1,0,0.3-0.1,0.4-0.1c0.1,0,0.1,0.1,0.1,0.3&#9;&#9;c0,0.2-0.2,0.6-0.3,1.5c0,0.3-0.1,1.7-0.2,2.1c0,0.1-0.1,0.3-0.3,0.3c-0.2,0-0.3-0.1-0.3-0.4c0-0.2,0-0.7-0.2-1.1&#9;&#9;c-0.2-0.5-0.5-0.7-2.3-1c-0.5-0.1-4.3-0.1-4.7-0.1c-0.1,0-0.2,0.1-0.2,0.3v8.5c0,0.2,0,0.3,0.2,0.3c0.4,0,4.7,0,5.4-0.1&#9;&#9;c0.8-0.1,1.2-0.1,1.6-0.4c0.2-0.2,0.4-0.4,0.5-0.4c0.1,0,0.2,0.1,0.2,0.3c0,0.2-0.2,0.7-0.3,1.7c-0.1,0.6-0.1,1.8-0.1,2&#9;&#9;c0,0.3-0.1,0.6-0.3,0.6c-0.1,0-0.2-0.1-0.2-0.3c0-0.3,0-0.6-0.1-1c-0.1-0.4-0.4-0.8-1.6-1c-0.9-0.1-4.3-0.1-4.9-0.1&#9;&#9;c-0.2,0-0.2,0.1-0.2,0.2v2.6c0,1.1,0,4.7,0,5.3c0.1,2.1,0.7,2.5,3.8,2.5c0.8,0,2.4,0,3.2-0.3c0.8-0.4,1.3-0.9,1.5-2.2&#9;&#9;c0.1-0.4,0.1-0.5,0.3-0.5s0.2,0.3,0.2,0.5c0,0.2-0.3,2.3-0.4,3c-0.2,0.8-0.6,0.8-1.8,0.8c-2.4,0-4.3-0.1-5.6-0.1&#9;&#9;c-1.4-0.1-2.2-0.1-2.7-0.1c-0.1,0-0.7,0-1.4,0c-0.6,0-1.4,0.1-1.9,0.1c-0.3,0-0.5-0.1-0.5-0.3c0-0.1,0.1-0.3,0.3-0.3&#9;&#9;c0.3,0,0.7-0.1,1-0.1c0.6-0.1,0.7-0.7,0.8-1.6c0.2-1.3,0.2-3.7,0.2-6.7V173.2z" style="fill: rgb(149, 108, 0);"/>
    <path d="M87.1,173.2c0-4.8,0-5.7-0.1-6.7c-0.1-1.1-0.3-1.6-1.3-1.7c-0.3,0-0.8-0.1-1.1-0.1c-0.1,0-0.3-0.1-0.3-0.3&#9;&#9;c0-0.2,0.1-0.3,0.5-0.3c1.5,0,3.6,0.1,3.8,0.1c0.3,0,3-0.1,4-0.1c2.1,0,4.3,0.2,6,1.4c0.8,0.6,2.2,2.1,2.2,4.2c0,2.3-1,4.6-4,7.1&#9;&#9;c2.6,3.3,4.9,6.1,6.7,8.1c1.7,1.8,2.8,2.1,3.6,2.2c0.6,0.1,1,0.1,1.1,0.1s0.3,0.1,0.3,0.3c0,0.2-0.2,0.3-0.8,0.3h-2&#9;&#9;c-1.8,0-2.6-0.2-3.4-0.6c-1.4-0.7-2.6-2.2-4.4-4.6c-1.4-1.7-2.8-3.7-3.5-4.5c-0.1-0.1-0.2-0.2-0.4-0.2l-4.1-0.1&#9;&#9;c-0.1,0-0.2,0.1-0.2,0.3v0.7c0,3,0,5.4,0.1,6.7c0.1,0.9,0.3,1.5,1.3,1.6c0.4,0.1,1.1,0.1,1.4,0.1c0.2,0,0.3,0.1,0.3,0.3&#9;&#9;c0,0.1-0.1,0.3-0.5,0.3c-1.8,0-3.8-0.1-4-0.1c0,0-2.2,0.1-3.2,0.1c-0.3,0-0.5-0.1-0.5-0.3c0-0.1,0.1-0.3,0.3-0.3&#9;&#9;c0.3,0,0.7-0.1,1-0.1c0.6-0.1,0.7-0.7,0.8-1.6c0.2-1.3,0.2-3.7,0.2-6.7V173.2z M89.8,175.8c0,0.2,0.1,0.3,0.2,0.4&#9;&#9;c0.5,0.3,2.1,0.5,3.6,0.5c0.8,0,1.6,0,2.4-0.5c1.1-0.7,1.9-2.4,1.9-4.8c0-3.9-2.1-6.1-5.6-6.1c-1,0-2,0.1-2.3,0.2&#9;&#9;c-0.1,0.1-0.3,0.2-0.3,0.4V175.8z" style="fill: rgb(149, 108, 0);"/>
    <path d="M116.8,164.8c0.4-1,0.5-1.2,0.8-1.2c0.3,0,0.4,0.4,0.8,1.1c0.6,1.3,5.8,14.2,7.7,18.9c1.2,2.8,2.1,3.2,2.7,3.4&#9;&#9;c0.5,0.1,1,0.2,1.3,0.2c0.2,0,0.4,0.1,0.4,0.3c0,0.2-0.4,0.3-0.7,0.3c-0.5,0-2.9,0-5.1-0.1c-0.6,0-1.1,0-1.1-0.2&#9;&#9;c0-0.1,0.1-0.1,0.2-0.2c0.2-0.1,0.5-0.3,0.3-0.8l-2.9-7.1c-0.1-0.1-0.1-0.2-0.3-0.2h-7.4c-0.1,0-0.3,0.1-0.3,0.3l-1.8,5&#9;&#9;c-0.3,0.8-0.5,1.5-0.5,2.1c0,0.6,0.5,0.8,1.1,0.8h0.3c0.3,0,0.3,0.1,0.3,0.3c0,0.2-0.2,0.3-0.5,0.3c-0.8,0-2.5-0.1-2.9-0.1&#9;&#9;c-0.3,0-1.9,0.1-3.3,0.1c-0.4,0-0.6-0.1-0.6-0.3c0-0.1,0.1-0.3,0.3-0.3c0.2,0,0.7,0,1-0.1c1.5-0.2,2.1-1.3,2.7-2.9L116.8,164.8z&#9;&#9; M120.4,177.8c0.1,0,0.1-0.1,0.1-0.2l-3.2-8.5c-0.2-0.5-0.4-0.5-0.5,0l-3,8.5c0,0.1,0,0.2,0.1,0.2H120.4z" style="fill: rgb(149, 108, 0);"/>
    <path d="M159.7,183.8c0.1,1.1,0.3,2.8,1.6,3.2c0.9,0.3,1.8,0.3,2.1,0.3c0.1,0,0.3,0.1,0.3,0.2c0,0.2-0.3,0.3-0.7,0.3&#9;&#9;c-0.7,0-4.3,0-5.5-0.1c-0.8-0.1-0.9-0.2-0.9-0.3c0-0.1,0.1-0.2,0.2-0.3c0.2,0,0.2-0.5,0.1-1.1l-1.5-15.8h-0.1l-7.8,15.9&#9;&#9;c-0.7,1.4-0.8,1.6-1.1,1.6c-0.3,0-0.5-0.3-1.1-1.4c-0.8-1.5-3-5.5-3.8-7.2c-1-2-3.6-7.2-4.1-8.5h-0.1l-1.2,14.1c0,0.5,0,1.1,0,1.6&#9;&#9;c0,0.5,0.3,0.8,0.8,0.9c0.6,0.1,1,0.2,1.2,0.2c0.1,0,0.3,0.1,0.3,0.2c0,0.2-0.2,0.3-0.6,0.3c-1.2,0-2.7-0.1-3-0.1&#9;&#9;c-0.3,0-1.8,0.1-2.7,0.1c-0.3,0-0.5-0.1-0.5-0.3c0-0.1,0.1-0.2,0.3-0.2c0.3,0,0.5,0,1-0.1c1.1-0.2,1.1-1.3,1.2-2.5l2.3-20.3&#9;&#9;c0-0.3,0.2-0.6,0.4-0.6c0.2,0,0.5,0.1,0.7,0.5l9.7,19.4l9.4-19.3c0.1-0.3,0.3-0.5,0.5-0.5c0.2,0,0.4,0.3,0.5,0.8L159.7,183.8z" style="fill: rgb(149, 108, 0);"/>
    <path d="M172.3,178.7c0,3,0,5.5,0.1,6.7c0.1,0.9,0.2,1.5,1.2,1.6c0.5,0.1,1.2,0.1,1.5,0.1c0.2,0,0.3,0.1,0.3,0.3&#9;&#9;c0,0.1-0.1,0.3-0.5,0.3c-1.8,0-3.9-0.1-4-0.1c-0.2,0-2.2,0.1-3.2,0.1c-0.3,0-0.5-0.1-0.5-0.3c0-0.1,0.1-0.3,0.3-0.3&#9;&#9;c0.3,0,0.7-0.1,1-0.1c0.6-0.1,0.7-0.7,0.8-1.6c0.1-1.3,0.2-3.7,0.2-6.7v-5.5c0-4.8,0-5.7-0.1-6.7c-0.1-1.1-0.3-1.5-1-1.7&#9;&#9;c-0.4-0.1-0.8-0.1-1-0.1c-0.1,0-0.3-0.1-0.3-0.3c0-0.2,0.1-0.3,0.5-0.3c1.1,0,3.1,0.1,3.3,0.1c0.1,0,2.2-0.1,3.2-0.1&#9;&#9;c0.4,0,0.5,0.1,0.5,0.3c0,0.1-0.1,0.3-0.3,0.3c-0.2,0-0.4,0-0.8,0.1c-0.9,0.2-1.1,0.6-1.1,1.7c0,1,0,1.9,0,6.7V178.7z" style="fill: rgb(149, 108, 0);"/>
    <path d="M183.5,184.8c-3.2-2.7-3.9-6.3-3.9-9.2c0-2.1,0.8-5.7,3.6-8.5c1.9-1.9,4.9-3.3,9.8-3.3c1.3,0,3.1,0.1,4.7,0.4&#9;&#9;c1.2,0.2,2.2,0.4,3.3,0.5c0.3,0,0.4,0.1,0.4,0.3c0,0.3-0.1,0.6-0.1,1.8c0,1,0,2.7-0.1,3.2c0,0.5-0.2,0.7-0.4,0.7&#9;&#9;c-0.2,0-0.3-0.2-0.3-0.7c0-1.2-0.5-2.5-1.4-3.1c-1.1-1-3.5-1.7-6.3-1.7c-4.1,0-6.1,1.1-7.3,2.2c-2.4,2.2-2.9,5-2.9,8.1&#9;&#9;c0,6,4.7,11.3,11.6,11.3c2.4,0,4-0.2,5.3-1.5c0.7-0.7,1.1-2,1.2-2.6c0.1-0.3,0.1-0.4,0.3-0.4c0.1,0,0.3,0.2,0.3,0.4&#9;&#9;c0,0.2-0.4,2.9-0.8,4c-0.2,0.6-0.3,0.7-0.8,0.9c-1.3,0.5-3.7,0.7-5.8,0.7C189.2,188.2,186,187,183.5,184.8z" style="fill: rgb(149, 108, 0);"/>
    <path d="M227.2,161c0.4-1.2,0.6-1.4,0.8-1.4c0.2,0,0.4,0.2,0.8,1.3c0.6,1.4,6.3,16.5,8.5,22.1c1.3,3.3,2.4,3.8,3.2,4.1&#9;&#9;c0.5,0.2,1.1,0.2,1.5,0.2c0.2,0,0.4,0,0.4,0.2c0,0.2-0.3,0.3-0.7,0.3c-0.5,0-3.2,0-5.8-0.1c-0.7,0-1.1,0-1.1-0.3&#9;&#9;c0-0.1,0.1-0.2,0.3-0.3c0.2-0.1,0.4-0.4,0.2-1l-3.4-9c-0.1-0.1-0.1-0.2-0.3-0.2h-7.9c-0.2,0-0.3,0.1-0.4,0.3l-2.2,6.5&#9;&#9;c-0.3,0.9-0.5,1.8-0.5,2.5c0,0.7,0.8,1.1,1.4,1.1h0.4c0.3,0,0.4,0.1,0.4,0.2c0,0.2-0.2,0.3-0.5,0.3c-0.9,0-2.5-0.1-2.9-0.1&#9;&#9;c-0.4,0-2.4,0.1-4.1,0.1c-0.5,0-0.7-0.1-0.7-0.3c0-0.1,0.1-0.2,0.3-0.2c0.3,0,0.8,0,1.1-0.1c1.7-0.2,2.4-1.6,3.1-3.4L227.2,161z&#9;&#9; M231,175.6c0.2,0,0.2-0.1,0.1-0.3l-3.5-9.9c-0.2-0.5-0.4-0.5-0.5,0l-3.2,9.9c-0.1,0.2,0,0.3,0.1,0.3H231z" style="fill: rgb(149, 108, 0);"/>
    <path d="M246.7,173.2c0-4.8,0-5.7-0.1-6.7c-0.1-1.1-0.3-1.6-1.3-1.7c-0.3,0-0.8-0.1-1.1-0.1c-0.1,0-0.3-0.1-0.3-0.3&#9;&#9;c0-0.2,0.1-0.3,0.5-0.3c1.5,0,3.6,0.1,3.8,0.1c0.3,0,3-0.1,4-0.1c2.1,0,4.3,0.2,6,1.4c0.8,0.6,2.2,2.1,2.2,4.2c0,2.3-1,4.6-4,7.1&#9;&#9;c2.6,3.3,4.9,6.1,6.7,8.1c1.7,1.8,2.8,2.1,3.6,2.2c0.6,0.1,1,0.1,1.1,0.1s0.3,0.1,0.3,0.3c0,0.2-0.2,0.3-0.8,0.3h-2&#9;&#9;c-1.8,0-2.6-0.2-3.4-0.6c-1.4-0.7-2.6-2.2-4.4-4.6c-1.4-1.7-2.8-3.7-3.5-4.5c-0.1-0.1-0.2-0.2-0.4-0.2l-4.1-0.1&#9;&#9;c-0.1,0-0.2,0.1-0.2,0.3v0.7c0,3,0,5.4,0.1,6.7c0.1,0.9,0.3,1.5,1.3,1.6c0.4,0.1,1.1,0.1,1.4,0.1c0.2,0,0.3,0.1,0.3,0.3&#9;&#9;c0,0.1-0.1,0.3-0.5,0.3c-1.8,0-3.8-0.1-4-0.1c0,0-2.2,0.1-3.2,0.1c-0.3,0-0.5-0.1-0.5-0.3c0-0.1,0.1-0.3,0.3-0.3&#9;&#9;c0.3,0,0.7-0.1,1-0.1c0.6-0.1,0.7-0.7,0.8-1.6c0.2-1.3,0.2-3.7,0.2-6.7V173.2z M249.5,175.8c0,0.2,0.1,0.3,0.2,0.4&#9;&#9;c0.5,0.3,2.1,0.5,3.6,0.5c0.8,0,1.6,0,2.4-0.5c1.1-0.7,1.9-2.4,1.9-4.8c0-3.9-2.1-6.1-5.6-6.1c-1,0-2,0.1-2.3,0.2&#9;&#9;c-0.1,0.1-0.3,0.2-0.3,0.4V175.8z" style="fill: rgb(149, 108, 0);"/>
    <path d="M276.7,178.7c0,3,0,5.5,0.1,6.7c0.1,0.9,0.3,1.5,1.2,1.6c0.4,0.1,1.2,0.1,1.5,0.1c0.2,0,0.3,0.1,0.3,0.3&#9;&#9;c0,0.1-0.1,0.3-0.5,0.3c-1.8,0-3.8-0.1-4-0.1c-0.1,0-2.4,0.1-3.3,0.1c-0.4,0-0.5-0.1-0.5-0.3c0-0.1,0.1-0.2,0.3-0.2&#9;&#9;c0.3,0,0.7-0.1,1-0.1c0.7-0.1,0.8-0.8,1-1.7c0.1-1.3,0.1-3.7,0.1-6.7v-13.1l-4.7,0.1c-2,0-2.8,0.3-3.3,1c-0.4,0.5-0.4,0.8-0.5,1&#9;&#9;c-0.1,0.3-0.2,0.3-0.3,0.3c-0.1,0-0.2-0.1-0.2-0.3c0-0.3,0.6-3.1,0.7-3.4c0-0.2,0.2-0.6,0.3-0.6c0.2,0,0.5,0.3,1.4,0.4&#9;&#9;c0.9,0.1,2.2,0.1,2.5,0.1h12.2c1.1,0,1.8-0.1,2.3-0.1c0.5-0.1,0.8-0.1,0.9-0.1c0.1,0,0.1,0.2,0.1,0.4c0,1-0.1,3.2-0.1,3.6&#9;&#9;c0,0.3-0.1,0.4-0.3,0.4c-0.1,0-0.2-0.1-0.3-0.6l0-0.3c-0.1-1-0.8-1.7-3.9-1.7l-4-0.1V178.7z" style="fill: rgb(149, 108, 0);"/>
    <path d="M295,178.7c0,3,0,5.5,0.1,6.7c0.1,0.9,0.2,1.5,1.2,1.6c0.5,0.1,1.2,0.1,1.5,0.1c0.2,0,0.3,0.1,0.3,0.3&#9;&#9;c0,0.1-0.1,0.3-0.5,0.3c-1.8,0-3.9-0.1-4-0.1c-0.2,0-2.2,0.1-3.2,0.1c-0.3,0-0.5-0.1-0.5-0.3c0-0.1,0.1-0.3,0.3-0.3&#9;&#9;c0.3,0,0.7-0.1,1-0.1c0.6-0.1,0.7-0.7,0.8-1.6c0.1-1.3,0.2-3.7,0.2-6.7v-5.5c0-4.8,0-5.7-0.1-6.7c-0.1-1.1-0.3-1.5-1-1.7&#9;&#9;c-0.4-0.1-0.8-0.1-1-0.1c-0.1,0-0.3-0.1-0.3-0.3c0-0.2,0.1-0.3,0.5-0.3c1.1,0,3.1,0.1,3.3,0.1c0.1,0,2.2-0.1,3.2-0.1&#9;&#9;c0.4,0,0.5,0.1,0.5,0.3c0,0.1-0.1,0.3-0.3,0.3c-0.2,0-0.4,0-0.8,0.1c-0.9,0.2-1.1,0.6-1.1,1.7c0,1,0,1.9,0,6.7V178.7z" style="fill: rgb(149, 108, 0);"/>
    <path d="M303.6,187.3c-0.4-0.2-0.5-0.3-0.5-1.2c0-1.5,0.1-2.8,0.2-3.3c0-0.3,0.1-0.5,0.3-0.5c0.2,0,0.3,0.1,0.3,0.4&#9;&#9;s0,0.7,0.1,1.1c0.5,2.3,2.9,3.1,5.1,3.1c3.2,0,4.8-1.8,4.8-4.1c0-2.2-1.2-3.3-4.1-5.4l-1.5-1.1c-3.5-2.6-4.6-4.5-4.6-6.7&#9;&#9;c0-3.7,2.9-5.9,7.1-5.9c1.3,0,2.6,0.2,3.3,0.4c0.6,0.1,0.9,0.1,1.1,0.1c0.3,0,0.3,0,0.3,0.2c0,0.1-0.1,1.2-0.1,3.3&#9;&#9;c0,0.5,0,0.7-0.3,0.7c-0.2,0-0.3-0.1-0.3-0.4c0-0.4-0.3-1.2-0.5-1.5c-0.2-0.4-1.3-1.5-4.2-1.5c-2.3,0-4.3,1.2-4.3,3.4&#9;&#9;c0,2,1,3.1,4.2,5.3l0.9,0.6c3.9,2.7,5.3,4.8,5.3,7.5c0,1.8-0.7,3.8-3,5.3c-1.4,0.9-3.4,1.1-5.1,1.1&#9;&#9;C306.8,188.2,304.9,187.9,303.6,187.3z" style="fill: rgb(149, 108, 0);"/>
    <path d="M332.5,178.7c0,3,0,5.5,0.1,6.7c0.1,0.9,0.3,1.5,1.2,1.6c0.4,0.1,1.2,0.1,1.5,0.1c0.2,0,0.3,0.1,0.3,0.3&#9;&#9;c0,0.1-0.1,0.3-0.5,0.3c-1.8,0-3.8-0.1-4-0.1c-0.1,0-2.4,0.1-3.3,0.1c-0.4,0-0.5-0.1-0.5-0.3c0-0.1,0.1-0.2,0.3-0.2&#9;&#9;c0.3,0,0.7-0.1,1-0.1c0.7-0.1,0.8-0.8,1-1.7c0.1-1.3,0.1-3.7,0.1-6.7v-13.1l-4.7,0.1c-2,0-2.8,0.3-3.3,1c-0.4,0.5-0.4,0.8-0.5,1&#9;&#9;c-0.1,0.3-0.2,0.3-0.3,0.3c-0.1,0-0.2-0.1-0.2-0.3c0-0.3,0.6-3.1,0.7-3.4c0-0.2,0.2-0.6,0.3-0.6c0.2,0,0.5,0.3,1.4,0.4&#9;&#9;c0.9,0.1,2.2,0.1,2.5,0.1h12.2c1.1,0,1.8-0.1,2.3-0.1c0.5-0.1,0.8-0.1,0.9-0.1c0.1,0,0.1,0.2,0.1,0.4c0,1-0.1,3.2-0.1,3.6&#9;&#9;c0,0.3-0.1,0.4-0.3,0.4c-0.1,0-0.2-0.1-0.3-0.6l0-0.3c-0.1-1-0.8-1.7-3.9-1.7l-4-0.1V178.7z" style="fill: rgb(149, 108, 0);"/>
  </g>
  <g class="gold" transform="matrix(1, 0, 0, 1, -9.180815696716305, 61.803760528564446)">
    <path d="M9.7,219.6c0-4.3,2.7-7.1,5.6-8.8c-1.4-1.9-1.8-3.4-1.8-5.1c0-2.9,3-6.7,7.9-6.7c1.9,0,3.4,0.4,4.4,0.9&#9;&#9;c0.4,0.3,0.5,0.5,0.5,0.9c0,1.1-0.1,3.7-0.3,4.2c-0.1,0.6-0.2,0.6-0.4,0.6c-0.2,0-0.2-0.1-0.2-0.7c0-1-0.2-2.2-1.1-3.1&#9;&#9;c-0.8-0.8-2.1-1.6-3.7-1.6c-2.2,0-4.7,1.4-4.7,4.8c0,2.9,2,5.2,5.8,9.4c1.2,1.4,5.8,5.6,6.9,6.6c1-1.4,1.9-3.8,1.9-6.1&#9;&#9;c0-0.6-0.1-1.2-0.7-1.8c-0.5-0.5-1.2-0.6-1.8-0.6c-0.2,0-0.4-0.1-0.4-0.3c0-0.2,0.3-0.3,0.6-0.3c0.9,0,2.3,0,4.4,0.3&#9;&#9;c0.5,0.1,0.7,0.4,0.7,0.7c0,3-2,6.7-3.6,8.6c2.4,2.1,4,3,5.1,3.6c1.2,0.7,3,1.4,4.4,1.4c0.3,0,0.5,0,0.5,0.3c0,0.1-0.3,0.3-0.6,0.3&#9;&#9;h-3.6c-2.7,0-3.6-0.3-7.6-3.4c-0.8,0.8-3.7,4-9.2,4C12.2,227.7,9.7,222.8,9.7,219.6z M26.8,223.1c-2.1-1.7-5.7-5.2-6.6-6.2&#9;&#9;c-1-1-3.3-3.6-4.3-5.1c-1.9,1.2-3.3,3.2-3.3,6.2c0,4.6,3.2,7.9,7.3,7.9C23.3,225.8,25.5,224.4,26.8,223.1z" style="fill: rgb(149, 108, 0);"/>
    <path d="M62.5,216.6c0,3.5,0,6.4,0.2,8c0.1,1.1,0.3,1.9,1.4,2c0.5,0.1,1.3,0.1,1.6,0.1c0.2,0,0.3,0.1,0.3,0.2&#9;&#9;c0,0.2-0.2,0.3-0.6,0.3c-2,0-4.3-0.1-4.5-0.1s-2.5,0.1-3.6,0.1c-0.4,0-0.6-0.1-0.6-0.3c0-0.1,0.1-0.2,0.3-0.2&#9;&#9;c0.3,0,0.8-0.1,1.1-0.1c0.7-0.1,0.9-1,1.1-2c0.2-1.5,0.2-4.4,0.2-8v-15.5l-5.4,0.1c-2.3,0-3.2,0.3-3.7,1.2&#9;&#9;c-0.4,0.6-0.5,0.9-0.6,1.1c-0.1,0.3-0.2,0.4-0.4,0.4c-0.1,0-0.2-0.1-0.2-0.3c0-0.4,0.7-3.5,0.8-3.8c0.1-0.2,0.2-0.7,0.4-0.7&#9;&#9;c0.3,0,0.6,0.4,1.6,0.4c1.1,0.1,2.5,0.2,2.9,0.2h13.7c1.2,0,2-0.1,2.6-0.2c0.5-0.1,0.9-0.2,1-0.2c0.2,0,0.2,0.2,0.2,0.4&#9;&#9;c0,1.1-0.1,3.6-0.1,4c0,0.3-0.1,0.5-0.3,0.5c-0.2,0-0.3-0.1-0.3-0.6l0-0.4c-0.1-1.1-1-1.9-4.5-2l-4.6-0.1V216.6z" style="fill: rgb(149, 108, 0);"/>
    <path d="M81.4,218.2c0,3,0,5.5,0.1,6.7c0.1,0.9,0.2,1.5,1.2,1.6c0.5,0.1,1.2,0.1,1.5,0.1c0.2,0,0.3,0.1,0.3,0.3&#9;&#9;c0,0.1-0.1,0.3-0.5,0.3c-1.8,0-3.9-0.1-4-0.1c-0.2,0-2.2,0.1-3.2,0.1c-0.3,0-0.5-0.1-0.5-0.3c0-0.1,0.1-0.3,0.3-0.3&#9;&#9;c0.3,0,0.7-0.1,1-0.1c0.6-0.1,0.7-0.7,0.8-1.6c0.1-1.3,0.2-3.7,0.2-6.7v-5.5c0-4.8,0-5.7-0.1-6.7c-0.1-1.1-0.3-1.5-1-1.7&#9;&#9;c-0.4-0.1-0.8-0.1-1-0.1c-0.1,0-0.3-0.1-0.3-0.3c0-0.2,0.1-0.3,0.5-0.3c1.1,0,3.1,0.1,3.3,0.1c0.1,0,2.2-0.1,3.2-0.1&#9;&#9;c0.4,0,0.5,0.1,0.5,0.3c0,0.1-0.1,0.3-0.3,0.3c-0.2,0-0.4,0-0.8,0.1c-0.9,0.2-1.1,0.6-1.1,1.7c0,1,0,1.9,0,6.7V218.2z" style="fill: rgb(149, 108, 0);"/>
    <path d="M95,218.3c0,4.6,0.1,6.4,0.7,7c0.5,0.5,1.8,0.7,4.3,0.7c1.7,0,3.1,0,3.9-1c0.4-0.5,0.7-1.1,0.8-1.8&#9;&#9;c0-0.2,0.1-0.4,0.3-0.4c0.1,0,0.2,0.1,0.2,0.5c0,0.3-0.2,2.2-0.5,3.1c-0.2,0.7-0.3,0.8-2.1,0.8c-2.3,0-4.1,0-5.6-0.1&#9;&#9;c-1.5,0-2.6-0.1-3.5-0.1c-0.1,0-0.7,0-1.3,0c-0.7,0-1.4,0.1-1.9,0.1c-0.3,0-0.5-0.1-0.5-0.3c0-0.1,0.1-0.3,0.3-0.3&#9;&#9;c0.3,0,0.7-0.1,1-0.1c0.6-0.1,0.7-0.7,0.8-1.6c0.2-1.3,0.2-3.7,0.2-6.7v-5.5c0-4.8,0-5.7-0.1-6.7c-0.1-1.1-0.3-1.6-1.3-1.7&#9;&#9;c-0.3,0-0.8-0.1-1.1-0.1c-0.1,0-0.3-0.1-0.3-0.3c0-0.2,0.1-0.3,0.5-0.3c1.5,0,3.5,0.1,3.7,0.1c0.1,0,2.6-0.1,3.6-0.1&#9;&#9;c0.3,0,0.5,0.1,0.5,0.3c0,0.1-0.1,0.2-0.3,0.2c-0.2,0-0.7,0-1.1,0.1c-1,0.2-1.1,0.7-1.2,1.8c0,1,0,1.9,0,6.7V218.3z" style="fill: rgb(149, 108, 0);"/>
    <path d="M111.7,212.7c0-4.8,0-5.7-0.1-6.7c-0.1-1.1-0.3-1.6-1.3-1.7c-0.3,0-0.8-0.1-1.1-0.1c-0.1,0-0.3-0.1-0.3-0.3&#9;&#9;c0-0.2,0.1-0.3,0.5-0.3c1.5,0,3.6,0.1,3.7,0.1c0.2,0,7,0,7.7,0c0.6,0,1.2-0.1,1.5-0.2c0.1,0,0.3-0.1,0.4-0.1c0.1,0,0.1,0.1,0.1,0.3&#9;&#9;c0,0.2-0.2,0.6-0.3,1.5c0,0.3-0.1,1.7-0.2,2c0,0.1-0.1,0.3-0.3,0.3c-0.2,0-0.3-0.1-0.3-0.4c0-0.2,0-0.7-0.2-1.1&#9;&#9;c-0.2-0.5-0.5-0.7-2.3-1c-0.5-0.1-4.3-0.1-4.7-0.1c-0.1,0-0.2,0.1-0.2,0.3v8.5c0,0.2,0,0.3,0.2,0.3c0.4,0,4.7,0,5.4-0.1&#9;&#9;c0.8-0.1,1.2-0.1,1.6-0.4c0.2-0.2,0.4-0.4,0.5-0.4c0.1,0,0.2,0.1,0.2,0.3c0,0.2-0.2,0.7-0.3,1.7c-0.1,0.6-0.1,1.8-0.1,2&#9;&#9;c0,0.3-0.1,0.6-0.3,0.6c-0.1,0-0.2-0.1-0.2-0.3c0-0.3,0-0.6-0.1-1c-0.1-0.4-0.4-0.8-1.6-1c-0.9-0.1-4.3-0.1-4.9-0.1&#9;&#9;c-0.2,0-0.2,0.1-0.2,0.2v2.6c0,1.1,0,4.7,0,5.3c0.1,2.1,0.7,2.5,3.8,2.5c0.8,0,2.4,0,3.2-0.3c0.8-0.4,1.3-0.9,1.5-2.2&#9;&#9;c0.1-0.4,0.1-0.5,0.3-0.5c0.2,0,0.2,0.3,0.2,0.5s-0.3,2.3-0.4,3c-0.2,0.8-0.5,0.8-1.8,0.8c-2.4,0-4.3-0.1-5.6-0.1&#9;&#9;c-1.4-0.1-2.2-0.1-2.7-0.1c-0.1,0-0.7,0-1.4,0c-0.6,0-1.4,0.1-1.9,0.1c-0.3,0-0.5-0.1-0.5-0.3c0-0.1,0.1-0.3,0.3-0.3&#9;&#9;c0.3,0,0.7-0.1,1-0.1c0.6-0.1,0.7-0.7,0.8-1.6c0.2-1.3,0.2-3.7,0.2-6.7V212.7z" style="fill: rgb(149, 108, 0);"/>
    <path d="M144.6,210.2c0-5.7,0-6.7-0.1-7.9c-0.1-1.2-0.4-1.8-1.6-2.1c-0.3-0.1-0.9-0.1-1.2-0.1c-0.1,0-0.3-0.1-0.3-0.2&#9;&#9;c0-0.2,0.2-0.3,0.6-0.3c1.6,0,4,0.1,4.1,0.1c0.4,0,2.7-0.1,4.9-0.1c3.6,0,10.3-0.3,14.7,4.2c1.8,1.9,3.6,4.9,3.6,9.3&#9;&#9;c0,4.6-1.9,8.2-4,10.3c-1.6,1.7-4.9,4.2-11.1,4.2c-1.6,0-3.5-0.1-5.1-0.2c-1.6-0.1-2.9-0.2-3-0.2c-0.1,0-0.7,0-1.5,0&#9;&#9;c-0.7,0-1.6,0.1-2.1,0.1c-0.4,0-0.6-0.1-0.6-0.3c0-0.1,0.1-0.2,0.3-0.2c0.3,0,0.8-0.1,1.1-0.1c0.7-0.1,0.9-1,1.1-2&#9;&#9;c0.2-1.5,0.2-4.4,0.2-8V210.2z M147.7,214.1c0,3.9,0,7.3,0.1,8c0,0.9,0.1,2.4,0.4,2.8c0.5,0.7,1.9,1.5,6.2,1.5&#9;&#9;c3.4,0,6.6-1.2,8.7-3.4c1.9-1.9,2.9-5.4,2.9-8.8c0-4.7-2-7.7-3.5-9.2c-3.4-3.6-7.6-4.1-12-4.1c-0.7,0-2.1,0.1-2.4,0.3&#9;&#9;c-0.3,0.1-0.4,0.3-0.4,0.7c0,1.2,0,5,0,7.8V214.1z" style="fill: rgb(149, 108, 0);"/>
    <path d="M177,212.7c0-4.8,0-5.7-0.1-6.7c-0.1-1.1-0.3-1.6-1.3-1.7c-0.3,0-0.8-0.1-1.1-0.1c-0.1,0-0.3-0.1-0.3-0.3&#9;&#9;c0-0.2,0.1-0.3,0.5-0.3c1.5,0,3.6,0.1,3.7,0.1c0.2,0,7,0,7.7,0c0.6,0,1.2-0.1,1.5-0.2c0.1,0,0.3-0.1,0.4-0.1c0.1,0,0.1,0.1,0.1,0.3&#9;&#9;c0,0.2-0.2,0.6-0.3,1.5c0,0.3-0.1,1.7-0.2,2c0,0.1-0.1,0.3-0.3,0.3c-0.2,0-0.3-0.1-0.3-0.4c0-0.2,0-0.7-0.2-1.1&#9;&#9;c-0.2-0.5-0.5-0.7-2.3-1c-0.5-0.1-4.3-0.1-4.7-0.1c-0.1,0-0.2,0.1-0.2,0.3v8.5c0,0.2,0,0.3,0.2,0.3c0.4,0,4.7,0,5.4-0.1&#9;&#9;c0.8-0.1,1.2-0.1,1.6-0.4c0.2-0.2,0.4-0.4,0.5-0.4c0.1,0,0.2,0.1,0.2,0.3c0,0.2-0.2,0.7-0.3,1.7c-0.1,0.6-0.1,1.8-0.1,2&#9;&#9;c0,0.3-0.1,0.6-0.3,0.6c-0.1,0-0.2-0.1-0.2-0.3c0-0.3,0-0.6-0.1-1c-0.1-0.4-0.4-0.8-1.6-1c-0.9-0.1-4.3-0.1-4.9-0.1&#9;&#9;c-0.2,0-0.2,0.1-0.2,0.2v2.6c0,1.1,0,4.7,0,5.3c0.1,2.1,0.7,2.5,3.8,2.5c0.8,0,2.4,0,3.2-0.3c0.8-0.4,1.3-0.9,1.5-2.2&#9;&#9;c0.1-0.4,0.1-0.5,0.3-0.5c0.2,0,0.2,0.3,0.2,0.5s-0.3,2.3-0.4,3c-0.2,0.8-0.6,0.8-1.8,0.8c-2.4,0-4.3-0.1-5.6-0.1&#9;&#9;c-1.4-0.1-2.2-0.1-2.7-0.1c-0.1,0-0.7,0-1.4,0c-0.6,0-1.4,0.1-1.9,0.1c-0.3,0-0.5-0.1-0.5-0.3c0-0.1,0.1-0.3,0.3-0.3&#9;&#9;c0.3,0,0.7-0.1,1-0.1c0.6-0.1,0.7-0.7,0.8-1.6c0.2-1.3,0.2-3.7,0.2-6.7V212.7z" style="fill: rgb(149, 108, 0);"/>
    <path d="M194.5,226.8c-0.4-0.2-0.5-0.3-0.5-1.2c0-1.5,0.1-2.8,0.2-3.3c0-0.3,0.1-0.5,0.3-0.5c0.2,0,0.3,0.1,0.3,0.4&#9;&#9;s0,0.7,0.1,1.1c0.5,2.3,2.9,3.1,5.1,3.1c3.2,0,4.8-1.8,4.8-4.1c0-2.2-1.2-3.3-4.1-5.4l-1.5-1.1c-3.5-2.6-4.6-4.5-4.6-6.7&#9;&#9;c0-3.7,2.9-5.9,7.1-5.9c1.3,0,2.6,0.2,3.3,0.4c0.6,0.1,0.9,0.1,1.1,0.1c0.3,0,0.3,0,0.3,0.2c0,0.1-0.1,1.2-0.1,3.3&#9;&#9;c0,0.5,0,0.7-0.3,0.7c-0.2,0-0.3-0.1-0.3-0.4c0-0.4-0.3-1.2-0.5-1.5c-0.2-0.4-1.3-1.5-4.2-1.5c-2.3,0-4.3,1.2-4.3,3.4&#9;&#9;c0,2,1,3.1,4.2,5.3l0.9,0.6c3.9,2.7,5.3,4.8,5.3,7.5c0,1.8-0.7,3.8-3,5.3c-1.4,0.9-3.4,1.1-5.1,1.1&#9;&#9;C197.7,227.6,195.8,227.4,194.5,226.8z" style="fill: rgb(149, 108, 0);"/>
    <path d="M218.6,218.2c0,3,0,5.5,0.1,6.7c0.1,0.9,0.2,1.5,1.2,1.6c0.5,0.1,1.2,0.1,1.5,0.1c0.2,0,0.3,0.1,0.3,0.3&#9;&#9;c0,0.1-0.1,0.3-0.5,0.3c-1.8,0-3.9-0.1-4-0.1c-0.2,0-2.2,0.1-3.2,0.1c-0.3,0-0.5-0.1-0.5-0.3c0-0.1,0.1-0.3,0.3-0.3&#9;&#9;c0.3,0,0.7-0.1,1-0.1c0.6-0.1,0.7-0.7,0.8-1.6c0.1-1.3,0.2-3.7,0.2-6.7v-5.5c0-4.8,0-5.7-0.1-6.7c-0.1-1.1-0.3-1.5-1-1.7&#9;&#9;c-0.4-0.1-0.8-0.1-1-0.1c-0.1,0-0.3-0.1-0.3-0.3c0-0.2,0.1-0.3,0.5-0.3c1.1,0,3.1,0.1,3.3,0.1c0.1,0,2.2-0.1,3.2-0.1&#9;&#9;c0.4,0,0.5,0.1,0.5,0.3c0,0.1-0.1,0.3-0.3,0.3c-0.2,0-0.4,0-0.8,0.1c-0.9,0.2-1.1,0.6-1.1,1.7c0,1,0,1.9,0,6.7V218.2z" style="fill: rgb(149, 108, 0);"/>
    <path d="M244.7,219.3c0-2.5-0.1-2.9-1.4-3.1c-0.3,0-0.8-0.1-1.1-0.1c-0.1,0-0.3-0.1-0.3-0.3c0-0.2,0.1-0.3,0.5-0.3&#9;&#9;c1.5,0,3.6,0.1,3.8,0.1c0.1,0,2.2-0.1,3.2-0.1c0.4,0,0.5,0,0.5,0.3c0,0.1-0.1,0.3-0.3,0.3c-0.2,0-0.4,0-0.8,0.1&#9;&#9;c-0.9,0.1-1.1,0.6-1.2,1.7c0,1,0,1.9,0,3.2v3.5c0,1.4,0,1.5-0.4,1.7c-2.1,1.1-5,1.4-6.9,1.4c-2.5,0-7-0.3-10.6-3.3&#9;&#9;c-2-1.7-3.8-5-3.8-8.9c0-5,2.5-8.5,5.4-10.2c2.9-1.8,6.1-2,8.6-2c2.1,0,4.3,0.4,4.9,0.5c0.7,0.1,1.8,0.3,2.6,0.3&#9;&#9;c0.3,0,0.4,0.1,0.4,0.3c0,0.4-0.2,1.3-0.2,4.4c0,0.5-0.1,0.7-0.4,0.7c-0.2,0-0.2-0.2-0.2-0.5c0-0.4-0.2-1.3-0.7-2.1&#9;&#9;c-0.8-1.2-3.3-2.4-7.4-2.4c-1.9,0-4.3,0.1-6.7,2c-1.9,1.4-3.2,4.2-3.2,7.8c0,4.4,2.3,7.6,3.4,8.6c2.6,2.4,5.3,3.3,8.2,3.3&#9;&#9;c1.1,0,2.6-0.1,3.5-0.6c0.4-0.2,0.7-0.4,0.7-1V219.3z" style="fill: rgb(149, 108, 0);"/>
    <path d="M258.7,223c0.1,2.6,0.4,3.3,1.2,3.6c0.6,0.1,1.3,0.2,1.6,0.2c0.1,0,0.3,0.1,0.3,0.3c0,0.2-0.2,0.3-0.6,0.3&#9;&#9;c-1.8,0-3.1-0.1-3.4-0.1c-0.3,0-1.6,0.1-3.1,0.1c-0.3,0-0.5,0-0.5-0.3c0-0.1,0.1-0.3,0.3-0.3c0.3,0,0.8,0,1.3-0.2&#9;&#9;c0.8-0.2,0.9-1.1,0.9-3.9v-17.8c0-1.2,0.2-1.6,0.4-1.6c0.4,0,0.9,0.6,1.2,1c0.5,0.5,5.2,5.5,10.2,10.6c3.2,3.3,6.6,7,7.6,8&#9;&#9;l-0.3-15.6c0-2-0.2-2.7-1.2-2.9c-0.6-0.1-1.3-0.1-1.6-0.1c-0.2,0-0.3-0.2-0.3-0.3c0-0.2,0.3-0.2,0.6-0.2c1.5,0,3,0.1,3.4,0.1&#9;&#9;c0.4,0,1.4-0.1,2.7-0.1c0.3,0,0.6,0,0.6,0.2c0,0.1-0.1,0.3-0.4,0.3c-0.1,0-0.4,0-0.8,0.1c-1.1,0.2-1.1,0.8-1.1,2.7l-0.1,18.3&#9;&#9;c0,2.1,0,2.2-0.3,2.2c-0.3,0-0.7-0.3-2.5-1.9c-0.3-0.3-5-4.9-8.4-8.4c-3.7-3.9-7.4-7.7-8.4-8.8L258.7,223z" style="fill: rgb(149, 108, 0);"/>
    <path d="M287.1,212.7c0-4.8,0-5.7-0.1-6.7c-0.1-1.1-0.3-1.6-1.3-1.7c-0.3,0-0.8-0.1-1.1-0.1c-0.1,0-0.3-0.1-0.3-0.3&#9;&#9;c0-0.2,0.1-0.3,0.5-0.3c1.5,0,3.6,0.1,3.7,0.1c0.2,0,7,0,7.7,0c0.6,0,1.2-0.1,1.5-0.2c0.1,0,0.3-0.1,0.4-0.1c0.1,0,0.1,0.1,0.1,0.3&#9;&#9;c0,0.2-0.2,0.6-0.3,1.5c0,0.3-0.1,1.7-0.2,2c0,0.1-0.1,0.3-0.3,0.3c-0.2,0-0.3-0.1-0.3-0.4c0-0.2,0-0.7-0.2-1.1&#9;&#9;c-0.2-0.5-0.6-0.7-2.3-1c-0.5-0.1-4.3-0.1-4.7-0.1c-0.1,0-0.2,0.1-0.2,0.3v8.5c0,0.2,0,0.3,0.2,0.3c0.4,0,4.7,0,5.4-0.1&#9;&#9;c0.8-0.1,1.2-0.1,1.6-0.4c0.2-0.2,0.4-0.4,0.5-0.4c0.1,0,0.2,0.1,0.2,0.3c0,0.2-0.2,0.7-0.3,1.7c-0.1,0.6-0.1,1.8-0.1,2&#9;&#9;c0,0.3-0.1,0.6-0.3,0.6c-0.1,0-0.2-0.1-0.2-0.3c0-0.3,0-0.6-0.1-1c-0.1-0.4-0.4-0.8-1.6-1c-0.9-0.1-4.3-0.1-4.9-0.1&#9;&#9;c-0.2,0-0.2,0.1-0.2,0.2v2.6c0,1.1,0,4.7,0,5.3c0.1,2.1,0.7,2.5,3.8,2.5c0.8,0,2.4,0,3.2-0.3c0.8-0.4,1.3-0.9,1.5-2.2&#9;&#9;c0.1-0.4,0.1-0.5,0.3-0.5c0.2,0,0.2,0.3,0.2,0.5s-0.3,2.3-0.4,3c-0.2,0.8-0.6,0.8-1.8,0.8c-2.4,0-4.3-0.1-5.6-0.1&#9;&#9;c-1.4-0.1-2.2-0.1-2.7-0.1c-0.1,0-0.7,0-1.4,0c-0.6,0-1.4,0.1-1.9,0.1c-0.3,0-0.5-0.1-0.5-0.3c0-0.1,0.1-0.3,0.3-0.3&#9;&#9;c0.3,0,0.7-0.1,1-0.1c0.6-0.1,0.7-0.7,0.8-1.6c0.2-1.3,0.2-3.7,0.2-6.7V212.7z" style="fill: rgb(149, 108, 0);"/>
    <path d="M307.3,212.7c0-4.8,0-5.7-0.1-6.7c-0.1-1.1-0.3-1.6-1.3-1.7c-0.3,0-0.8-0.1-1.1-0.1c-0.1,0-0.3-0.1-0.3-0.3&#9;&#9;c0-0.2,0.1-0.3,0.5-0.3c1.5,0,3.6,0.1,3.8,0.1c0.3,0,3-0.1,4-0.1c2.1,0,4.3,0.2,6,1.4c0.8,0.6,2.2,2.1,2.2,4.2c0,2.3-1,4.6-4,7.1&#9;&#9;c2.6,3.3,4.9,6.1,6.7,8.1c1.7,1.8,2.8,2.1,3.6,2.2c0.6,0.1,1,0.1,1.1,0.1c0.2,0,0.3,0.1,0.3,0.3c0,0.2-0.2,0.3-0.8,0.3h-2&#9;&#9;c-1.8,0-2.6-0.2-3.4-0.6c-1.4-0.7-2.6-2.2-4.4-4.6c-1.4-1.7-2.8-3.7-3.5-4.5c-0.1-0.1-0.2-0.2-0.4-0.2l-4.1-0.1&#9;&#9;c-0.1,0-0.2,0.1-0.2,0.3v0.7c0,3,0,5.4,0.1,6.7c0.1,0.9,0.3,1.5,1.3,1.6c0.4,0.1,1.1,0.1,1.4,0.1c0.2,0,0.3,0.1,0.3,0.3&#9;&#9;c0,0.1-0.1,0.3-0.5,0.3c-1.8,0-3.8-0.1-4-0.1c0,0-2.2,0.1-3.2,0.1c-0.3,0-0.5-0.1-0.5-0.3c0-0.1,0.1-0.3,0.3-0.3&#9;&#9;c0.3,0,0.7-0.1,1-0.1c0.6-0.1,0.7-0.7,0.8-1.6c0.2-1.3,0.2-3.7,0.2-6.7V212.7z M310.1,215.3c0,0.2,0.1,0.3,0.2,0.4&#9;&#9;c0.5,0.3,2.1,0.5,3.6,0.5c0.8,0,1.7,0,2.4-0.5c1.1-0.7,1.9-2.4,1.9-4.8c0-3.9-2.1-6.1-5.6-6.1c-1,0-2,0.1-2.3,0.2&#9;&#9;c-0.1,0.1-0.3,0.2-0.3,0.4V215.3z" style="fill: rgb(149, 108, 0);"/>
  </g>
  <g class="gold" transform="matrix(1, 0, 0, 1, -9.180815696716305, 61.803760528564446)">
    <path d="M538.9,210.5c0,53.5-69.7,81.4-135,81.4c-33.1,0-62.4-4-90.9-9.6c-32.4,17.4-85.2,26.8-126.7,26.8&#9;c-37.6,0-89.7-4.5-89.7-29.4c0-21.6,39.2-26.5,69.7-26c45.5,0.9,96.7,14.1,150.9,23c14.6-9.1,24-21.1,24-33.8&#9;c0-9.1-5.2-14.8-9.6-15.7c-1.4-0.3-2.6,0-2.6-0.5c0-0.7,0.9-0.9,2.8-0.7c5.2,0.5,11.3,7,11.3,16.9c0,12.7-9.1,24.9-23.3,34.3&#9;c27,4.4,54.7,7.5,82.9,7.5c68.1,0,134-21.8,134-74.2c0-38.3-39.2-59.1-81.9-59.1c-40.1,0-86.1,15.3-86.1,49.7&#9;c0,25.3,28.6,36.1,53.5,36.1c23.9,0,56.8-6.3,56.8-29.1c0-8.2-5.9-14.5-10.8-16.2c-5.6-1.9-8-0.7-8-1.6c0-0.9,4.2-1.2,8.4,0.2&#9;c5.9,1.9,12.4,8.2,12.4,17.4c0,24.7-31.9,36.2-58.4,35.9c-27.4-0.5-55.9-15.7-55.9-42.7c0-35.4,46.9-52.1,88.7-52.1&#9;c42.9,0,83.6,21.4,83.6,61.3V210.5z M186.8,307c40.1,0,91.3-8.7,123.2-25.1c-52.4-10.4-99.8-25.3-143.7-26.3&#9;c-30.1-0.7-67.9,4.4-67.9,24c0,24,51.6,27.4,88.3,27.4H186.8z" style="fill: rgb(149, 108, 0);"/>
  </g>
</svg>