<?xml version="1.0" encoding="utf-8"?>
<svg viewBox="56.3192 69.2038 471.6 124.2" xmlns="http://www.w3.org/2000/svg">
  <g class="dark" transform="matrix(1, 0, 0, 1, -9.180815696716305, 61.803760528564446)">
    <path d="M126.2,41.8c0,10.9,0.3,15.6,1.6,16.9c1.2,1.2,3.1,1.7,8.9,1.7c3.9,0,7.2-0.1,8.9-2.2c1-1.2,1.7-3,1.9-4.4&#9;&#9;c0.1-0.6,0.2-1,0.7-1c0.4,0,0.4,0.3,0.4,1.1c0,0.8-0.5,5.2-1.1,7.4c-0.5,1.7-0.7,2-4.7,2c-5.3,0-9.2-0.1-12.3-0.2&#9;&#9;c-3.1-0.1-5.4-0.2-7.5-0.2c-0.3,0-1.6,0.1-3,0.1c-1.5,0.1-3.1,0.1-4.2,0.1c-0.8,0-1.2-0.1-1.2-0.6c0-0.2,0.1-0.4,0.6-0.4&#9;&#9;c0.7,0,1.6-0.1,2.2-0.3c1.5-0.3,1.8-1.9,2.1-4.1c0.4-3.1,0.4-8.9,0.4-16v-13c0-11.5,0-13.6-0.1-15.9c-0.1-2.5-0.7-3.7-3.2-4.2&#9;&#9;c-0.6-0.1-1.8-0.2-2.5-0.2c-0.3,0-0.6-0.1-0.6-0.4c0-0.4,0.4-0.6,1.2-0.6c3.3,0,8,0.2,8.3,0.2c0.4,0,5.8-0.2,8-0.2&#9;&#9;c0.8,0,1.2,0.1,1.2,0.6c0,0.3-0.3,0.4-0.6,0.4c-0.5,0-1.6,0.1-2.4,0.2c-2.1,0.4-2.7,1.6-2.9,4.2c-0.1,2.4-0.1,4.4-0.1,15.9V41.8z" style="fill: rgb(34, 57, 76);"/>
    <path d="M167.9,44.9c0,6.1,0,11,0.3,13.6c0.2,1.8,0.4,3,2.4,3.3c1,0.1,2.4,0.3,3,0.3c0.4,0,0.5,0.3,0.5,0.5&#9;&#9;c0,0.3-0.3,0.5-1,0.5c-3.6,0-7.8-0.2-8.1-0.2c-0.4,0-4.4,0.2-6.4,0.2c-0.7,0-1-0.1-1-0.5c0-0.2,0.1-0.5,0.5-0.5&#9;&#9;c0.6,0,1.4-0.1,2-0.3c1.3-0.3,1.5-1.5,1.7-3.3c0.3-2.6,0.4-7.5,0.4-13.6V33.8c0-9.7,0-11.5-0.1-13.5c-0.1-2.1-0.7-3.1-2.1-3.4&#9;&#9;c-0.7-0.1-1.6-0.2-2-0.2c-0.3,0-0.5-0.3-0.5-0.5c0-0.4,0.3-0.5,1-0.5c2.1,0,6.2,0.1,6.6,0.1c0.3,0,4.5-0.1,6.5-0.1&#9;&#9;c0.7,0,1,0.1,1,0.5c0,0.2-0.3,0.5-0.5,0.5c-0.4,0-0.9,0-1.6,0.1c-1.8,0.4-2.1,1.3-2.3,3.5c-0.1,2-0.1,3.8-0.1,13.5V44.9z" style="fill: rgb(34, 57, 76);"/>
    <path d="M185.3,62.2c-0.9-0.4-1-0.7-1-2.4c0-3.1,0.3-5.6,0.4-6.6c0-0.7,0.1-1,0.5-1c0.4,0,0.6,0.2,0.6,0.7&#9;&#9;c0,0.5,0,1.4,0.2,2.3c1,4.6,5.9,6.2,10.3,6.2c6.4,0,9.7-3.6,9.7-8.3c0-4.5-2.4-6.6-8.2-10.9l-3-2.2c-7-5.2-9.3-9.1-9.3-13.4&#9;&#9;c0-7.4,5.8-11.8,14.4-11.8c2.6,0,5.2,0.4,6.7,0.7c1.3,0.3,1.8,0.3,2.3,0.3c0.5,0,0.7,0.1,0.7,0.4c0,0.3-0.3,2.4-0.3,6.6&#9;&#9;c0,1-0.1,1.4-0.5,1.4c-0.4,0-0.5-0.3-0.6-0.8c-0.1-0.7-0.6-2.4-1-3.1c-0.4-0.7-2.6-3.1-8.4-3.1c-4.7,0-8.6,2.4-8.6,6.8&#9;&#9;c0,4,2,6.3,8.4,10.6l1.8,1.3c7.9,5.4,10.6,9.7,10.6,15.1c0,3.7-1.4,7.7-6.1,10.7c-2.7,1.8-6.8,2.2-10.3,2.2&#9;&#9;C191.7,63.9,187.9,63.5,185.3,62.2z" style="fill: rgb(34, 57, 76);"/>
    <path d="M239.4,16.9c0.8-2.1,1.1-2.4,1.6-2.4c0.7,0,0.9,0.9,1.6,2.3c1.2,2.7,11.6,28.6,15.6,38.1&#9;&#9;c2.4,5.6,4.1,6.4,5.5,6.9c1,0.3,1.9,0.4,2.6,0.4c0.4,0,0.8,0.1,0.8,0.5c0,0.4-0.7,0.5-1.5,0.5c-1,0-5.8,0-10.3-0.1&#9;&#9;c-1.3-0.1-2.3-0.1-2.3-0.4c0-0.3,0.1-0.3,0.4-0.4c0.4-0.1,1-0.7,0.6-1.7L248.1,46c-0.1-0.3-0.2-0.4-0.6-0.4h-15&#9;&#9;c-0.3,0-0.5,0.1-0.7,0.5l-3.7,10c-0.6,1.6-1,3.1-1,4.2c0,1.3,1.1,1.7,2.2,1.7h0.6c0.5,0,0.7,0.2,0.7,0.5c0,0.4-0.4,0.5-1,0.5&#9;&#9;c-1.6,0-5.1-0.2-5.8-0.2c-0.7,0-3.9,0.2-6.6,0.2c-0.8,0-1.3-0.1-1.3-0.5c0-0.3,0.3-0.5,0.6-0.5c0.4,0,1.4-0.1,1.9-0.1&#9;&#9;c3-0.4,4.2-2.6,5.5-5.8L239.4,16.9z M246.6,43c0.3,0,0.3-0.1,0.2-0.4l-6.4-17.2c-0.4-1-0.7-1-1.1,0l-6.1,17.2&#9;&#9;c-0.1,0.3,0,0.4,0.2,0.4H246.6z" style="fill: rgb(34, 57, 76);"/>
  </g>
  <g class="dark" transform="matrix(1, 0, 0, 1, -9.180815696716305, 61.803760528564446)">
    <path d="M78.2,109.9c0,10.9,0.3,15.6,1.6,16.9c1.2,1.2,3.1,1.7,8.9,1.7c3.9,0,7.2-0.1,8.9-2.2c1-1.2,1.7-3,1.9-4.4&#9;&#9;c0.1-0.6,0.2-1,0.7-1c0.4,0,0.4,0.3,0.4,1.1c0,0.8-0.5,5.2-1.1,7.4c-0.5,1.7-0.7,2-4.7,2c-5.3,0-9.2-0.1-12.3-0.2&#9;&#9;c-3.1-0.1-5.4-0.2-7.5-0.2c-0.3,0-1.6,0.1-3,0.1c-1.5,0.1-3.1,0.1-4.2,0.1c-0.8,0-1.2-0.1-1.2-0.6c0-0.2,0.1-0.4,0.6-0.4&#9;&#9;c0.7,0,1.6-0.1,2.2-0.3c1.5-0.3,1.8-1.9,2.1-4.1c0.4-3.1,0.4-8.9,0.4-16v-13c0-11.5,0-13.6-0.1-15.9c-0.1-2.5-0.7-3.7-3.2-4.2&#9;&#9;c-0.6-0.1-1.8-0.2-2.5-0.2c-0.3,0-0.6-0.1-0.6-0.4c0-0.4,0.4-0.6,1.2-0.6c3.3,0,8,0.2,8.3,0.2c0.4,0,5.8-0.2,8-0.2&#9;&#9;c0.8,0,1.2,0.1,1.2,0.6c0,0.3-0.3,0.4-0.6,0.4c-0.5,0-1.6,0.1-2.4,0.2c-2.1,0.4-2.7,1.6-2.9,4.2c-0.1,2.4-0.1,4.4-0.1,15.9V109.9z" style="fill: rgb(34, 57, 76);"/>
    <path d="M119.9,112.9c0,6.1,0,11,0.3,13.6c0.2,1.8,0.4,3,2.4,3.3c1,0.1,2.4,0.3,3,0.3c0.4,0,0.5,0.3,0.5,0.5&#9;&#9;c0,0.3-0.3,0.5-1,0.5c-3.6,0-7.8-0.2-8.1-0.2c-0.4,0-4.4,0.2-6.4,0.2c-0.7,0-1-0.1-1-0.5c0-0.2,0.1-0.5,0.5-0.5&#9;&#9;c0.6,0,1.4-0.1,2-0.3c1.3-0.3,1.5-1.5,1.7-3.3c0.3-2.6,0.4-7.5,0.4-13.6v-11.1c0-9.7,0-11.5-0.1-13.5c-0.1-2.1-0.7-3.1-2.1-3.4&#9;&#9;c-0.7-0.1-1.6-0.2-2-0.2c-0.3,0-0.5-0.3-0.5-0.5c0-0.4,0.3-0.5,1-0.5c2.1,0,6.2,0.1,6.6,0.1c0.3,0,4.5-0.1,6.5-0.1&#9;&#9;c0.7,0,1,0.1,1,0.5c0,0.2-0.3,0.5-0.5,0.5c-0.4,0-0.9,0-1.6,0.1c-1.8,0.4-2.1,1.3-2.3,3.5c-0.1,2-0.1,3.8-0.1,13.5V112.9z" style="fill: rgb(34, 57, 76);"/>
    <path d="M141.3,101.8c0-9.7,0-11.5-0.1-13.5c-0.1-2.1-0.5-3.2-2.7-3.5c-0.5-0.1-1.6-0.1-2.2-0.1&#9;&#9;c-0.2,0-0.5-0.3-0.5-0.5c0-0.4,0.3-0.5,1-0.5c3,0,7.2,0.1,7.5,0.1c0.4,0,14,0.1,15.5,0c1.3-0.1,2.4-0.3,3-0.4&#9;&#9;c0.3-0.1,0.6-0.3,0.9-0.3c0.2,0,0.3,0.3,0.3,0.6c0,0.4-0.4,1.2-0.5,3c-0.1,0.6-0.2,3.4-0.4,4.1c-0.1,0.3-0.3,0.7-0.6,0.7&#9;&#9;c-0.4,0-0.5-0.3-0.5-0.8c0-0.4-0.1-1.5-0.4-2.2c-0.4-1-1.1-1.5-4.7-1.9c-1.1-0.1-8.6-0.2-9.4-0.2c-0.3,0-0.4,0.2-0.4,0.7V104&#9;&#9;c0,0.4,0,0.7,0.4,0.7c0.8,0,9.4,0,10.9-0.1c1.6-0.1,2.5-0.2,3.2-0.9c0.4-0.4,0.7-0.8,1-0.8c0.2,0,0.4,0.1,0.4,0.5&#9;&#9;c0,0.4-0.4,1.4-0.5,3.5c-0.1,1.3-0.3,3.6-0.3,4.1c0,0.5-0.1,1.2-0.6,1.2c-0.3,0-0.4-0.2-0.4-0.6c0-0.6,0-1.3-0.3-2.1&#9;&#9;c-0.2-0.9-0.8-1.6-3.3-1.9c-1.8-0.2-8.7-0.3-9.8-0.3c-0.4,0-0.4,0.2-0.4,0.4v5.2c0,2.1-0.1,9.5,0,10.7c0.1,4.2,1.3,5,7.8,5&#9;&#9;c1.7,0,4.8,0,6.5-0.7c1.7-0.7,2.6-1.8,3-4.4c0.1-0.7,0.3-1,0.7-1c0.4,0,0.4,0.5,0.4,1c0,0.4-0.5,4.7-0.9,6.1&#9;&#9;c-0.4,1.6-1.1,1.6-3.6,1.6c-4.9,0-8.6-0.1-11.3-0.2c-2.7-0.1-4.4-0.1-5.4-0.1c-0.1,0-1.4,0-2.8,0.1c-1.3,0.1-2.7,0.1-3.8,0.1&#9;&#9;c-0.7,0-1-0.1-1-0.5c0-0.2,0.1-0.5,0.5-0.5c0.6,0,1.4-0.2,2-0.3c1.3-0.2,1.4-1.5,1.7-3.3c0.4-2.6,0.4-7.5,0.4-13.6V101.8z" style="fill: rgb(34, 57, 76);"/>
    <path d="M182,101.8c0-9.7,0-11.5-0.1-13.5c-0.1-2.1-0.5-3.3-2.7-3.6c-0.5-0.1-1.6-0.1-2.2-0.1c-0.2,0-0.5-0.1-0.5-0.4&#9;&#9;c0-0.4,0.3-0.5,1-0.5c3,0,7.2,0.1,7.5,0.1c1.6,0,4.6-0.1,7.6-0.1c10.9,0,13.7,6.3,13.7,9.6c0,4.9-3.3,8-6.6,11&#9;&#9;c4.9,1.5,11.4,6,11.4,13.1c0,7-5.2,14-16.3,14c-1.2,0-3.5-0.1-5.6-0.2c-2.1-0.1-3.9-0.1-4.2-0.1c-0.1,0-1.3,0.1-2.7,0.1&#9;&#9;c-1.3,0.1-2.9,0.1-3.9,0.1c-0.7,0-1-0.1-1-0.5c0-0.2,0.1-0.4,0.5-0.4c0.6,0,1.4-0.2,2-0.3c1.3-0.2,1.4-1.6,1.7-3.5&#9;&#9;c0.4-2.6,0.4-7.5,0.4-13.6V101.8z M187.7,103.1c0,0.4,0.1,0.6,0.4,0.7c0.4,0.1,1.6,0.3,4,0.3c3.6,0,5-0.1,6.4-1.6&#9;&#9;c1.4-1.6,2.5-3.7,2.5-6.7c0-4.8-2.7-10.1-9.2-10.1c-0.7,0-2.3,0.1-3.3,0.3c-0.6,0.1-0.8,0.3-0.8,0.7V103.1z M187.7,110.1&#9;&#9;c0,4.9,0,12.4,0.1,13.4c0.2,3,0.2,3.8,2.2,4.7c1.8,0.8,4.5,0.9,5.7,0.9c4.3,0,9.5-1.6,9.5-9.7c0-2.8-1.1-8.2-6.2-11.4&#9;&#9;c-2.2-1.4-4.3-1.3-5.8-1.6c-0.8-0.1-4.1-0.1-5.1-0.1c-0.2,0-0.4,0.1-0.4,0.4V110.1z" style="fill: rgb(34, 57, 76);"/>
    <path d="M225.2,101.8c0-9.7,0-11.5-0.1-13.5c-0.1-2.1-0.5-3.2-2.7-3.5c-0.5-0.1-1.6-0.1-2.2-0.1&#9;&#9;c-0.2,0-0.5-0.3-0.5-0.5c0-0.4,0.3-0.5,1-0.5c3,0,7.2,0.1,7.5,0.1c0.4,0,14,0.1,15.5,0c1.3-0.1,2.4-0.3,3-0.4&#9;&#9;c0.3-0.1,0.6-0.3,0.9-0.3c0.2,0,0.3,0.3,0.3,0.6c0,0.4-0.4,1.2-0.5,3c-0.1,0.6-0.2,3.4-0.4,4.1c-0.1,0.3-0.3,0.7-0.6,0.7&#9;&#9;c-0.4,0-0.5-0.3-0.5-0.8c0-0.4-0.1-1.5-0.4-2.2c-0.4-1-1.1-1.5-4.7-1.9c-1.1-0.1-8.6-0.2-9.4-0.2c-0.3,0-0.4,0.2-0.4,0.7V104&#9;&#9;c0,0.4,0,0.7,0.4,0.7c0.8,0,9.4,0,10.9-0.1c1.6-0.1,2.5-0.2,3.2-0.9c0.4-0.4,0.7-0.8,1-0.8c0.2,0,0.4,0.1,0.4,0.5&#9;&#9;c0,0.4-0.4,1.4-0.5,3.5c-0.1,1.3-0.3,3.6-0.3,4.1c0,0.5-0.1,1.2-0.6,1.2c-0.3,0-0.4-0.2-0.4-0.6c0-0.6,0-1.3-0.3-2.1&#9;&#9;c-0.2-0.9-0.8-1.6-3.3-1.9c-1.8-0.2-8.7-0.3-9.8-0.3c-0.4,0-0.4,0.2-0.4,0.4v5.2c0,2.1-0.1,9.5,0,10.7c0.1,4.2,1.3,5,7.8,5&#9;&#9;c1.7,0,4.8,0,6.5-0.7c1.7-0.7,2.6-1.8,3-4.4c0.1-0.7,0.3-1,0.7-1c0.4,0,0.4,0.5,0.4,1c0,0.4-0.5,4.7-0.9,6.1&#9;&#9;c-0.4,1.6-1.1,1.6-3.6,1.6c-4.9,0-8.6-0.1-11.3-0.2c-2.7-0.1-4.4-0.1-5.4-0.1c-0.1,0-1.4,0-2.8,0.1c-1.3,0.1-2.7,0.1-3.8,0.1&#9;&#9;c-0.7,0-1-0.1-1-0.5c0-0.2,0.1-0.5,0.5-0.5c0.6,0,1.4-0.2,2-0.3c1.3-0.2,1.4-1.5,1.7-3.3c0.4-2.6,0.4-7.5,0.4-13.6V101.8z" style="fill: rgb(34, 57, 76);"/>
    <path d="M265.9,101.8c0-9.7,0-11.5-0.1-13.5c-0.1-2.1-0.5-3.2-2.7-3.5c-0.5-0.1-1.6-0.1-2.2-0.1&#9;&#9;c-0.2,0-0.5-0.3-0.5-0.5c0-0.4,0.3-0.5,1-0.5c3,0,7.3,0.1,7.7,0.1c0.7,0,6.1-0.1,8.1-0.1c4.1,0,8.7,0.4,12.1,2.7&#9;&#9;c1.6,1.2,4.5,4.2,4.5,8.6c0,4.7-1.9,9.2-8,14.3c5.3,6.6,9.8,12.3,13.6,16.2c3.5,3.5,5.6,4.1,7.2,4.4c1.3,0.2,1.9,0.2,2.3,0.2&#9;&#9;c0.4,0,0.6,0.3,0.6,0.5c0,0.4-0.4,0.5-1.6,0.5h-4.1c-3.7,0-5.3-0.4-6.9-1.3c-2.8-1.5-5.2-4.5-8.9-9.2c-2.7-3.4-5.6-7.5-7-9.2&#9;&#9;c-0.3-0.3-0.4-0.4-0.9-0.4l-8.3-0.1c-0.3,0-0.4,0.1-0.4,0.5v1.5c0,6.1,0,10.9,0.3,13.5c0.2,1.8,0.6,3,2.6,3.3&#9;&#9;c0.9,0.1,2.3,0.3,2.9,0.3c0.4,0,0.5,0.3,0.5,0.5c0,0.3-0.3,0.5-1,0.5c-3.5,0-7.7-0.2-8-0.2c-0.1,0-4.4,0.2-6.4,0.2&#9;&#9;c-0.7,0-1-0.1-1-0.5c0-0.2,0.1-0.5,0.5-0.5c0.6,0,1.4-0.1,2-0.3c1.3-0.3,1.4-1.5,1.7-3.3c0.4-2.6,0.4-7.5,0.4-13.6V101.8z&#9;&#9; M271.5,107.1c0,0.4,0.1,0.6,0.4,0.8c1,0.5,4.3,1,7.2,1c1.6,0,3.3-0.1,4.9-1.1c2.2-1.5,3.9-4.8,3.9-9.6c0-7.8-4.3-12.3-11.2-12.3&#9;&#9;c-1.9,0-4,0.2-4.7,0.4c-0.3,0.1-0.5,0.4-0.5,0.7V107.1z" style="fill: rgb(34, 57, 76);"/>
    <path d="M364.2,123.1c0.2,2.2,0.7,5.6,3.3,6.5c1.8,0.6,3.5,0.6,4.2,0.6c0.3,0,0.5,0.1,0.5,0.4c0,0.4-0.6,0.6-1.3,0.6&#9;&#9;c-1.5,0-8.7-0.1-11.1-0.3c-1.6-0.1-1.8-0.4-1.8-0.7c0-0.2,0.1-0.4,0.4-0.5c0.4-0.1,0.4-1,0.3-2.2l-3.1-31.9h-0.1l-15.7,32.1&#9;&#9;c-1.3,2.7-1.7,3.3-2.3,3.3c-0.6,0-1-0.6-2.2-2.9c-1.7-3.1-6-11.2-7.6-14.5c-1.9-4-7.2-14.5-8.3-17.1h-0.3l-2.5,28.4&#9;&#9;c-0.1,1-0.1,2.1-0.1,3.2c0,1,0.6,1.5,1.6,1.8c1.1,0.3,2.1,0.4,2.5,0.4c0.2,0,0.5,0.2,0.5,0.4c0,0.4-0.4,0.6-1.2,0.6&#9;&#9;c-2.4,0-5.5-0.2-6.1-0.2c-0.6,0-3.7,0.2-5.5,0.2c-0.7,0-1.1-0.1-1.1-0.6c0-0.2,0.3-0.4,0.7-0.4c0.5,0,1-0.1,1.9-0.2&#9;&#9;c2.1-0.4,2.2-2.7,2.5-5l4.7-41c0.1-0.7,0.4-1.1,0.7-1.1c0.4,0,1,0.2,1.3,1l19.6,39l18.9-38.9c0.3-0.6,0.6-1,1-1&#9;&#9;c0.4,0,0.8,0.5,1,1.7L364.2,123.1z" style="fill: rgb(34, 57, 76);"/>
    <path d="M395,84.9c0.8-2.1,1.1-2.4,1.5-2.4c0.7,0,0.9,0.9,1.6,2.3c1.2,2.7,11.6,28.6,15.6,38.1&#9;&#9;c2.4,5.6,4.1,6.4,5.5,6.9c1,0.3,1.9,0.4,2.6,0.4c0.4,0,0.8,0.1,0.8,0.5c0,0.4-0.7,0.5-1.5,0.5c-1,0-5.8,0-10.3-0.1&#9;&#9;c-1.3-0.1-2.3-0.1-2.3-0.4c0-0.3,0.1-0.3,0.4-0.4c0.4-0.1,1-0.7,0.6-1.7l-5.8-14.4c-0.1-0.3-0.2-0.4-0.6-0.4h-15&#9;&#9;c-0.3,0-0.5,0.1-0.7,0.5l-3.7,10c-0.6,1.6-1,3.1-1,4.2c0,1.3,1.1,1.7,2.2,1.7h0.6c0.5,0,0.7,0.2,0.7,0.5c0,0.4-0.4,0.5-1,0.5&#9;&#9;c-1.6,0-5.1-0.2-5.8-0.2c-0.7,0-3.9,0.2-6.6,0.2c-0.8,0-1.3-0.1-1.3-0.5c0-0.3,0.3-0.5,0.6-0.5c0.4,0,1.4-0.1,1.9-0.1&#9;&#9;c3-0.4,4.2-2.6,5.5-5.8L395,84.9z M402.2,111c0.3,0,0.3-0.1,0.2-0.4L396,93.4c-0.4-1-0.7-1-1.1,0l-6.1,17.2c-0.1,0.3,0,0.4,0.2,0.4&#9;&#9;H402.2z" style="fill: rgb(34, 57, 76);"/>
    <path d="M433.9,122.6c0.1,5.2,0.7,6.7,2.5,7.2c1.2,0.3,2.7,0.4,3.2,0.4c0.3,0,0.5,0.2,0.5,0.5c0,0.4-0.4,0.5-1.2,0.5&#9;&#9;c-3.7,0-6.3-0.2-6.9-0.2c-0.6,0-3.3,0.2-6.3,0.2c-0.7,0-1-0.1-1-0.5c0-0.3,0.2-0.5,0.5-0.5c0.5,0,1.7-0.1,2.7-0.4&#9;&#9;c1.6-0.4,1.8-2.1,1.8-7.8v-36c0-2.5,0.4-3.2,0.9-3.2c0.7,0,1.8,1.3,2.5,1.9c1,1,10.5,11.1,20.5,21.4c6.4,6.6,13.4,14.1,15.4,16.2&#9;&#9;l-0.7-31.5c-0.1-4.1-0.4-5.5-2.4-5.8c-1.2-0.2-2.7-0.3-3.2-0.3c-0.4,0-0.5-0.4-0.5-0.6c0-0.4,0.5-0.4,1.3-0.4c3,0,6.1,0.1,6.8,0.1&#9;&#9;c0.7,0,2.9-0.1,5.5-0.1c0.7,0,1.2,0.1,1.2,0.4c0,0.2-0.3,0.6-0.7,0.6c-0.3,0-0.8,0-1.6,0.1c-2.1,0.4-2.3,1.7-2.3,5.5l-0.1,36.8&#9;&#9;c0,4.1-0.1,4.5-0.5,4.5c-0.7,0-1.3-0.5-4.9-3.8c-0.7-0.6-10-9.8-16.9-17c-7.5-7.9-14.8-15.6-16.8-17.8L433.9,122.6z" style="fill: rgb(34, 57, 76);"/>
    <path d="M494,122.6c0.1,5.2,0.7,6.7,2.5,7.2c1.2,0.3,2.7,0.4,3.2,0.4c0.3,0,0.5,0.2,0.5,0.5c0,0.4-0.4,0.5-1.2,0.5&#9;&#9;c-3.7,0-6.3-0.2-6.9-0.2c-0.6,0-3.3,0.2-6.3,0.2c-0.7,0-1-0.1-1-0.5c0-0.3,0.2-0.5,0.5-0.5c0.5,0,1.7-0.1,2.7-0.4&#9;&#9;c1.6-0.4,1.8-2.1,1.8-7.8v-36c0-2.5,0.4-3.2,0.9-3.2c0.7,0,1.8,1.3,2.5,1.9c1,1,10.5,11.1,20.5,21.4c6.4,6.6,13.4,14.1,15.4,16.2&#9;&#9;l-0.7-31.5c-0.1-4.1-0.4-5.5-2.4-5.8c-1.2-0.2-2.7-0.3-3.2-0.3c-0.4,0-0.5-0.4-0.5-0.6c0-0.4,0.5-0.4,1.3-0.4c3,0,6.1,0.1,6.8,0.1&#9;&#9;c0.7,0,2.9-0.1,5.5-0.1c0.7,0,1.2,0.1,1.2,0.4c0,0.2-0.3,0.6-0.7,0.6c-0.3,0-0.8,0-1.5,0.1c-2.1,0.4-2.3,1.7-2.3,5.5l-0.1,36.8&#9;&#9;c0,4.1-0.1,4.5-0.5,4.5c-0.7,0-1.3-0.5-4.9-3.8c-0.7-0.6-10-9.8-16.9-17c-7.5-7.9-14.8-15.6-16.8-17.8L494,122.6z" style="fill: rgb(34, 57, 76);"/>
  </g>
</svg>