<?xml version="1.0" encoding="utf-8"?>
<svg width="30" height="24" viewBox="0 0 30 24" fill="none" xmlns="http://www.w3.org/2000/svg">
<path d="M0.857144 5.32547V5.32546C0.857069 4.17604 1.29683 3.07016 2.08623 2.23468C2.87514 1.39971 3.95349 0.898071 5.10029 0.832507L5.35908 0.825474H24.6429C25.7923 0.825399 26.8982 1.26516 27.7336 2.05456C28.5686 2.84347 29.0703 3.9218 29.1358 5.06859L29.1429 5.32746V18.8969C29.1429 20.0463 28.7032 21.1522 27.9138 21.9877C27.1249 22.8227 26.0465 23.3243 24.8997 23.3899L24.6409 23.3969H5.35714C4.20771 23.397 3.10183 22.9572 2.26635 22.1678C1.43138 21.3789 0.929741 20.3006 0.864177 19.1538L0.857144 18.895V5.32547ZM27.2857 8.35833V8.12169L27.0763 8.23192L15.4335 14.3605L15.4333 14.3606C15.3193 14.4208 15.1941 14.4566 15.0656 14.4658C14.9386 14.4748 14.8112 14.4577 14.6912 14.4154L14.5634 14.3595L2.92368 8.23334L2.71429 8.12314V8.35976V18.8969C2.71431 19.5602 2.96373 20.1992 3.41303 20.6871C3.86233 21.175 4.47866 21.4761 5.13967 21.5307L5.13966 21.5308L5.14548 21.5311L5.35119 21.5396L5.35119 21.5398H5.35714H24.6429C25.3064 21.5397 25.9456 21.2901 26.4335 20.8405C26.9215 20.3909 27.2224 19.7741 27.2767 19.1129L27.2768 19.1129L27.277 19.1072L27.2856 18.9029L27.2857 18.9029V18.8969V8.35833ZM24.6488 2.68274L24.6489 2.68262H24.6429H5.35714C4.69387 2.68264 4.05486 2.93206 3.56696 3.38136C3.07905 3.83066 2.77792 4.44699 2.72334 5.10801L2.72322 5.108L2.72298 5.11381L2.71441 5.31953L2.71429 5.31952V5.32547V5.93833V6.02458L2.79061 6.06475L14.9335 12.4562L15 12.4912L15.0666 12.4562L27.2094 6.06331L27.2857 6.02314V5.9369V5.32547C27.2857 4.66196 27.036 4.02274 26.5864 3.5348C26.1368 3.04686 25.5201 2.74588 24.8588 2.69167L24.8588 2.69155L24.8531 2.69131L24.6488 2.68274Z" fill="#4F8691" stroke="#FAF8F2" stroke-width="0.285714"/>
</svg>
