<svg width="21" height="21" viewBox="0 0 21 21" fill="none" xmlns="http://www.w3.org/2000/svg">
<path d="M19.7793 3.5036C19.519 2.83552 19.1721 2.26891 18.6071 1.70432M19.7793 3.5036L19.6394 3.55769C19.6394 3.55774 19.6394 3.55779 19.6395 3.55785M19.7793 3.5036C20.0289 4.14934 20.2004 4.88729 20.2512 5.96852L19.7793 3.5036ZM18.6071 1.70432L14.3346 0.211189C15.4017 0.260004 16.1238 0.42847 16.7543 0.673144L16.7544 0.67317C17.4048 0.925214 17.9518 1.26119 18.501 1.81039L18.501 1.81042C19.0502 2.35915 19.3861 2.90771 19.6395 3.55785M18.6071 1.70432C18.0422 1.13943 17.4772 0.79239 16.8086 0.533305L18.6071 1.70432ZM19.6395 3.55785C19.8826 4.18672 20.0512 4.90851 20.1013 5.97556M19.6395 3.55785L20.1013 5.97556M20.1013 5.97556C20.1498 7.05539 20.1625 7.39913 20.1625 10.1564C20.1625 12.9136 20.1498 13.2565 20.1013 14.3362C20.0512 15.4028 19.8826 16.1248 19.6395 16.754C19.3862 17.4039 19.0502 17.9525 18.501 18.5012L18.5009 18.5013C17.9523 19.0505 17.4045 19.3873 16.7549 19.6397L16.7549 19.6397C16.1257 19.8842 15.4031 20.0526 14.336 20.1015C13.2562 20.1506 12.9137 20.1627 10.1559 20.1627C7.39864 20.1627 7.05533 20.1506 5.97539 20.1015C4.9085 20.0526 4.18664 19.8842 3.55743 19.6397L3.50309 19.7795L3.55742 19.6397C2.90791 19.3873 2.3593 19.0505 1.81065 18.5013L1.81057 18.5012C1.26168 17.9525 0.925637 17.4039 0.673019 16.7538L0.533293 16.8081L0.673015 16.7537C0.428676 16.125 0.260301 15.4033 0.211185 14.3362C0.162186 13.2563 0.15 12.9138 0.15 10.1564C0.15 7.39891 0.162692 7.05512 0.210989 5.97507L20.1013 5.97556ZM3.55879 0.673L3.55871 0.673033C2.90861 0.925442 2.36002 1.26147 1.81132 1.81037L1.81126 1.81042C1.26207 2.35922 0.926008 2.90784 0.672764 3.55776L0.672751 3.55779C0.42756 4.18659 0.259002 4.90854 0.210991 5.97502L3.55879 0.673ZM3.55879 0.673C4.18745 0.428478 4.90918 0.260107 5.97625 0.211189L3.55879 0.673ZM14.268 1.73881L14.2681 1.73881C15.2748 1.78487 15.8283 1.95379 16.2012 2.09861C16.6944 2.29011 17.05 2.52164 17.4202 2.8921C17.7906 3.26248 18.0219 3.61864 18.2138 4.11167L18.2139 4.11172C18.3587 4.48415 18.5278 5.03766 18.5737 6.04449C18.6225 7.1186 18.6331 7.44284 18.6331 10.154C18.6331 12.8652 18.6225 13.1895 18.5737 14.2635L18.5737 14.2636C18.5276 15.2704 18.3587 15.8239 18.2139 16.1964M14.268 1.73881L18.0741 16.142M14.268 1.73881C13.1936 1.69 12.8696 1.68026 10.1572 1.68026C10.0401 1.68026 9.92748 1.68021 9.81897 1.68016C9.67038 1.6801 9.52958 1.68004 9.39605 1.68011V1.67755L9.24588 1.67772C7.35161 1.67985 6.98621 1.69257 6.04645 1.73505L6.04634 1.73506M14.268 1.73881L6.04634 1.73506M18.2139 16.1964L18.0741 16.142M18.2139 16.1964C18.2139 16.1964 18.2139 16.1964 18.2139 16.1963L18.0741 16.142M18.2139 16.1964C18.0223 16.6897 17.7904 17.0448 17.4201 17.4149M18.0741 16.142C17.89 16.616 17.6695 16.9535 17.3141 17.3088M17.4201 17.4149L17.3141 17.3088M17.4201 17.4149C17.4201 17.4149 17.4201 17.4149 17.4201 17.4149M17.4201 17.4149L17.4201 17.4149M17.3141 17.3088L17.4201 17.4149M17.3141 17.3088L17.4201 17.4149M17.4201 17.4149C17.0499 17.7851 16.6948 18.0165 16.2015 18.2081C16.2014 18.2081 16.2013 18.2082 16.2012 18.2082L16.1469 18.0684L17.4201 17.4149ZM6.04634 1.73506C5.03978 1.78131 4.48604 1.94976 4.11292 2.0953L6.04634 1.73506ZM5.97631 0.211186C7.05573 0.162103 7.39949 0.150009 10.154 0.15L5.97631 0.211186ZM10.1572 0.15C12.9126 0.150009 13.255 0.162103 14.3346 0.211187L10.1572 0.15ZM4.1128 2.09534C3.61978 2.2872 3.26364 2.51865 2.89329 2.889L4.1128 2.09534ZM14.5098 4.73495C14.5098 4.14491 14.9885 3.6666 15.5786 3.6666C16.1686 3.6666 16.6473 4.145 16.6473 4.73495C16.6473 5.32495 16.1686 5.8037 15.5786 5.8037C14.9886 5.8037 14.5098 5.32495 14.5098 4.73495ZM5.09152 10.1564C5.09152 7.35878 7.3597 5.09061 10.1572 5.09061C12.9547 5.09061 15.2221 7.35885 15.2221 10.1564C15.2221 12.9539 12.9547 15.221 10.1572 15.221C7.35965 15.221 5.09152 12.9539 5.09152 10.1564ZM13.6926 10.1564C13.6926 8.20364 12.1097 6.62087 10.1572 6.62087C8.20455 6.62087 6.62178 8.20364 6.62178 10.1564C6.62178 12.1088 8.20455 13.6918 10.1572 13.6918C12.1097 13.6918 13.6926 12.1089 13.6926 10.1564Z" fill="#956C00" stroke="white" stroke-width="0.3"/>
</svg>
