<svg width="20" height="15" viewBox="0 0 20 15" fill="none" xmlns="http://www.w3.org/2000/svg">
<g clip-path="url(#clip0_193_6)">
<mask id="path-1-inside-1_193_6" fill="white">
<path d="M19.6294 2.20391C19.5142 1.7779 19.2896 1.38953 18.9779 1.07747C18.6662 0.765409 18.2783 0.540553 17.8528 0.425294C16.295 0 10.026 0 10.026 0C10.026 0 3.75669 0.0129063 2.19913 0.438201C1.77365 0.553478 1.38576 0.778342 1.07408 1.0904C0.762405 1.40246 0.537814 1.79082 0.422677 2.21682C-0.0485068 4.98799 -0.231308 9.21032 0.435567 11.8705C0.550705 12.2965 0.775296 12.6849 1.08697 12.9969C1.39865 13.309 1.78654 13.5338 2.21202 13.6491C3.7697 14.0744 10.0388 14.0744 10.0388 14.0744C10.0388 14.0744 16.308 14.0744 17.8657 13.6491C18.2912 13.5338 18.679 13.309 18.9907 12.9969C19.3024 12.6849 19.527 12.2965 19.6421 11.8705C20.139 9.09552 20.2922 4.87576 19.6292 2.20403"/>
</mask>
<path d="M17.8528 0.425294L17.5894 1.38999L17.5913 1.39051L17.8528 0.425294ZM10.026 0V-1L10.0239 -0.999998L10.026 0ZM2.19913 0.438201L2.46064 1.4034L2.46254 1.40288L2.19913 0.438201ZM0.422677 2.21682L-0.542684 1.9559L-0.55516 2.00205L-0.563174 2.04919L0.422677 2.21682ZM0.435567 11.8705L-0.534418 12.1137L-0.532187 12.1226L-0.529794 12.1314L0.435567 11.8705ZM2.21202 13.6491L2.47541 12.6844L2.47353 12.6839L2.21202 13.6491ZM10.0388 14.0744V13.0744V14.0744ZM17.8657 13.6491L17.6042 12.6839L17.6023 12.6844L17.8657 13.6491ZM19.6421 11.8705L20.6075 12.1314L20.6188 12.0895L20.6265 12.0467L19.6421 11.8705ZM20.5947 1.94298C20.434 1.34851 20.1206 0.806426 19.6854 0.370767L18.2704 1.78417C18.4586 1.97263 18.5944 2.20729 18.664 2.46484L20.5947 1.94298ZM19.6854 0.370767C19.2502 -0.0648994 18.7086 -0.378932 18.1142 -0.539921L17.5913 1.39051C17.848 1.46004 18.0822 1.59572 18.2704 1.78417L19.6854 0.370767ZM18.1162 -0.539401C17.6209 -0.674608 16.8454 -0.758627 16.0466 -0.817843C15.219 -0.879188 14.2731 -0.9196 13.3854 -0.946383C12.496 -0.973216 11.6569 -0.986605 11.0407 -0.993296C10.7324 -0.996643 10.4794 -0.998319 10.3031 -0.999158C10.215 -0.999578 10.1461 -0.999788 10.099 -0.999894C10.0754 -0.999946 10.0574 -0.999973 10.0451 -0.999986C10.0389 -0.999993 10.0342 -0.999997 10.031 -0.999998C10.0294 -0.999999 10.0282 -1 10.0274 -1C10.0269 -1 10.0266 -1 10.0264 -1C10.0263 -1 10.0262 -1 10.0261 -1C10.026 -1 10.026 -1 10.026 0C10.026 1 10.0259 1 10.026 1C10.026 1 10.026 1 10.0261 1C10.0263 1 10.0265 1 10.0268 1C10.0275 1 10.0286 1 10.03 1C10.0328 1 10.0371 1.00001 10.0429 1.00001C10.0544 1.00002 10.0717 1.00005 10.0945 1.0001C10.14 1.0002 10.2073 1.00041 10.2936 1.00082C10.4663 1.00164 10.7152 1.00329 11.019 1.00659C11.6269 1.01319 12.4524 1.02638 13.325 1.05271C14.1993 1.07908 15.1127 1.11842 15.8987 1.17668C16.7135 1.23708 17.3058 1.31255 17.5894 1.38999L18.1162 -0.539401ZM10.026 0C10.0239 -0.999998 10.0238 -0.999998 10.0238 -0.999998C10.0237 -0.999997 10.0236 -0.999997 10.0235 -0.999997C10.0232 -0.999996 10.0229 -0.999996 10.0225 -0.999995C10.0216 -0.999993 10.0204 -0.99999 10.0188 -0.999986C10.0156 -0.999977 10.0109 -0.999964 10.0048 -0.999945C9.99251 -0.999906 9.97443 -0.999843 9.95089 -0.999742C9.9038 -0.99954 9.83486 -0.99919 9.74675 -0.998592C9.57054 -0.997396 9.31753 -0.995213 9.00921 -0.991256C8.393 -0.983348 7.55394 -0.968333 6.66464 -0.939873C5.77696 -0.911466 4.83111 -0.869415 4.00375 -0.806841C3.20491 -0.746424 2.43011 -0.661478 1.93572 -0.526484L2.46254 1.40288C2.74693 1.32523 3.33987 1.24908 4.15458 1.18746C4.94077 1.128 5.85428 1.08708 6.72861 1.0591C7.60133 1.03117 8.42694 1.01638 9.03488 1.00858C9.33865 1.00468 9.58759 1.00253 9.76032 1.00136C9.84667 1.00078 9.91394 1.00043 9.95945 1.00024C9.98221 1.00014 9.99953 1.00008 10.0111 1.00005C10.0168 1.00003 10.0212 1.00002 10.024 1.00001C10.0254 1 10.0265 1 10.0271 1C10.0275 0.999999 10.0277 0.999999 10.0279 0.999998C10.0279 0.999998 10.028 0.999998 10.028 0.999998C10.028 0.999998 10.028 0.999998 10.026 0ZM1.93762 -0.527C1.34333 -0.365986 0.801683 -0.0519418 0.366547 0.383723L1.78162 1.79708C1.96984 1.60863 2.20397 1.47294 2.46064 1.4034L1.93762 -0.527ZM0.366547 0.383723C-0.0685811 0.819381 -0.382017 1.36145 -0.542684 1.9559L1.38804 2.47773C1.45765 2.22019 1.59339 1.98554 1.78162 1.79708L0.366547 0.383723ZM-0.563174 2.04919C-1.04456 4.88038 -1.24977 9.2601 -0.534418 12.1137L1.40555 11.6273C0.787157 9.16055 0.947549 5.09559 1.40853 2.38444L-0.563174 2.04919ZM-0.529794 12.1314C-0.369127 12.7259 -0.0556905 13.2679 0.379437 13.7036L1.79451 12.2902C1.60628 12.1018 1.47054 11.8671 1.40093 11.6096L-0.529794 12.1314ZM0.379437 13.7036C0.814573 14.1393 1.35622 14.4533 1.95051 14.6143L2.47353 12.6839C2.21686 12.6144 1.98273 12.4787 1.79451 12.2902L0.379437 13.7036ZM1.94863 14.6138C2.44386 14.749 3.21939 14.833 4.01818 14.8923C4.84571 14.9536 5.79169 14.994 6.67941 15.0208C7.56876 15.0476 8.40786 15.061 9.0241 15.0677C9.33242 15.0711 9.58545 15.0727 9.76167 15.0736C9.84979 15.074 9.91873 15.0742 9.96582 15.0743C9.98936 15.0744 10.0074 15.0744 10.0197 15.0744C10.0259 15.0744 10.0306 15.0744 10.0338 15.0744C10.0354 15.0744 10.0366 15.0744 10.0374 15.0744C10.0379 15.0744 10.0382 15.0744 10.0384 15.0744C10.0385 15.0744 10.0387 15.0744 10.0387 15.0744C10.0388 15.0744 10.0388 15.0744 10.0388 14.0744C10.0388 13.0744 10.0389 13.0744 10.0388 13.0744C10.0388 13.0744 10.0388 13.0744 10.0387 13.0744C10.0385 13.0744 10.0383 13.0744 10.038 13.0744C10.0373 13.0744 10.0363 13.0744 10.0348 13.0744C10.032 13.0744 10.0277 13.0744 10.0219 13.0744C10.0104 13.0744 9.99306 13.0744 9.97031 13.0743C9.9248 13.0742 9.85753 13.074 9.77119 13.0736C9.59848 13.0728 9.34956 13.0711 9.04581 13.0678C8.43791 13.0612 7.61236 13.048 6.73972 13.0217C5.86545 12.9953 4.95207 12.956 4.16604 12.8977C3.35127 12.8373 2.75902 12.7619 2.47541 12.6844L1.94863 14.6138ZM10.0388 14.0744C10.0388 15.0744 10.0389 15.0744 10.039 15.0744C10.039 15.0744 10.0392 15.0744 10.0393 15.0744C10.0395 15.0744 10.0398 15.0744 10.0403 15.0744C10.0411 15.0744 10.0423 15.0744 10.0439 15.0744C10.0471 15.0744 10.0518 15.0744 10.058 15.0744C10.0703 15.0744 10.0883 15.0744 10.1119 15.0743C10.159 15.0742 10.2279 15.074 10.316 15.0736C10.4923 15.0727 10.7453 15.0711 11.0536 15.0677C11.6698 15.061 12.5089 15.0476 13.3983 15.0208C14.286 14.994 15.232 14.9536 16.0595 14.8923C16.8583 14.833 17.6338 14.749 18.1291 14.6138L17.6023 12.6844C17.3187 12.7619 16.7264 12.8373 15.9117 12.8977C15.1256 12.956 14.2122 12.9953 13.338 13.0217C12.4653 13.048 11.6398 13.0612 11.0319 13.0678C10.7281 13.0711 10.4792 13.0728 10.3065 13.0736C10.2202 13.074 10.1529 13.0742 10.1074 13.0743C10.0846 13.0744 10.0673 13.0744 10.0558 13.0744C10.05 13.0744 10.0457 13.0744 10.0429 13.0744C10.0414 13.0744 10.0404 13.0744 10.0397 13.0744C10.0394 13.0744 10.0391 13.0744 10.039 13.0744C10.0389 13.0744 10.0389 13.0744 10.0389 13.0744C10.0388 13.0744 10.0388 13.0744 10.0388 14.0744ZM18.1272 14.6143C18.7215 14.4533 19.2631 14.1393 19.6983 13.7036L18.2832 12.2902C18.095 12.4787 17.8608 12.6144 17.6042 12.6839L18.1272 14.6143ZM19.6983 13.7036C20.1334 13.2679 20.4468 12.7259 20.6075 12.1314L18.6768 11.6096C18.6072 11.8671 18.4714 12.1018 18.2832 12.2902L19.6983 13.7036ZM20.6265 12.0467C21.1367 9.19703 21.3094 4.82273 20.5998 1.9632L18.6587 2.44486C19.275 4.9288 19.1412 8.99401 18.6578 11.6943L20.6265 12.0467Z" fill="#956C00" mask="url(#path-1-inside-1_193_6)"/>
<path d="M8.53064 4.8892L12.2347 7.03726L8.53064 9.18523V4.8892Z" fill="#956C00" stroke="#956C00"/>
</g>
<defs>
<clipPath id="clip0_193_6">
<rect width="20" height="14.3031" fill="white"/>
</clipPath>
</defs>
</svg>
